<?xml version="1.0" standalone="no"?><!DOCTYPE svg PUBLIC "-//W3C//DTD SVG 1.1//EN" "http://www.w3.org/Graphics/SVG/1.1/DTD/svg11.dtd"><svg t="1755845806837" class="icon" viewBox="0 0 1024 1024" version="1.1" xmlns="http://www.w3.org/2000/svg" p-id="1230" xmlns:xlink="http://www.w3.org/1999/xlink" width="200" height="200"><path d="M576.03267 64.069995v85.327111H21.406445V106.733551s0-85.327112 85.327111-85.327112h426.635558z" fill="#C2745D" p-id="1231"></path><path d="M1002.668228 469.373775v127.990667a21.331778 21.331778 0 0 1-21.331778 21.331778H682.691559a21.331778 21.331778 0 0 1-21.331778-21.331778v-127.990667a21.331778 21.331778 0 0 1 21.331778-21.331778h298.644891a21.331778 21.331778 0 0 1 21.331778 21.331778z" fill="#D0D7DF" p-id="1232"></path><path d="M874.67756 704.023332v85.327111a85.327112 85.327112 0 0 1-85.327111 85.327112H106.733556a85.327112 85.327112 0 0 1-85.327111-85.327112V149.397106h767.944004a85.327112 85.327112 0 0 1 85.327111 85.327112v213.317779h-191.986001a21.331778 21.331778 0 0 0-21.331778 21.331778v127.990667a21.331778 21.331778 0 0 0 21.331778 21.331778h191.986001z" fill="#C28A5D" p-id="1233"></path><path d="M298.719557 725.35511m-277.313112 0a277.313113 277.313113 0 1 0 554.626225 0 277.313113 277.313113 0 1 0-554.626225 0Z" fill="#FED049" p-id="1234"></path><path d="M874.67756 682.691554a21.331778 21.331778 0 0 0-21.331778 21.331778v85.327111a63.995334 63.995334 0 0 1-63.995333 63.995334h-149.322446a21.331778 21.331778 0 0 0 0 42.663556h149.322446a106.78688 106.78688 0 0 0 106.658889-106.65889v-85.327111a21.331778 21.331778 0 0 0-21.331778-21.331778zM981.33645 426.710219h-21.331778a21.331778 21.331778 0 0 0 0 42.663556h21.331778v127.990667H682.691559v-127.990667h191.986001a21.331778 21.331778 0 0 0 21.331778-21.331778V234.724218a106.78688 106.78688 0 0 0-106.658889-106.658889H128.065334a21.331778 21.331778 0 0 0 0 42.663555h661.285115a63.995334 63.995334 0 0 1 63.995333 63.995334v191.986001h-170.654223a42.663556 42.663556 0 0 0-42.663556 42.663556v127.990667a42.663556 42.663556 0 0 0 42.663556 42.663556h298.644891a42.663556 42.663556 0 0 0 42.663555-42.663556v-127.990667a42.663556 42.663556 0 0 0-42.663555-42.663556z" fill="#474C54" p-id="1235"></path><path d="M746.686893 512.037331a21.331778 21.331778 0 0 0 0 42.663555h42.663556a21.331778 21.331778 0 0 0 0-42.663555zM768.018671 341.383107a21.331778 21.331778 0 0 0 21.331778-21.331777v-42.663556a41.788953 41.788953 0 0 0-42.663556-42.663556h-42.663556a21.331778 21.331778 0 0 0 0 42.663556h42.663556v42.663556a21.331778 21.331778 0 0 0 21.331778 21.331777zM597.364448 234.724218H170.72889a21.331778 21.331778 0 0 0 0 42.663556h426.635558a21.331778 21.331778 0 0 0 0-42.663556z" fill="#474C54" p-id="1236"></path><path d="M298.719557 426.710219a296.127741 296.127741 0 0 0-215.450957 91.875967 21.331778 21.331778 0 1 0 30.803088 29.523181A255.981335 255.981335 0 1 1 42.738222 725.35511V106.84021A60.859562 60.859562 0 0 1 106.733556 42.738217h417.804202l36.413345 36.413345a21.331778 21.331778 0 0 0 30.163134-30.163134l-42.663556-42.663556A21.331778 21.331778 0 0 0 533.369114 0.074661H106.733556a102.840501 102.840501 0 0 0-106.658889 106.65889v618.621559a298.64489 298.64489 0 1 0 298.64489-298.644891z" fill="#474C54" p-id="1237"></path><path d="M213.392446 768.018665a21.331778 21.331778 0 0 0-21.331778 21.331778v21.331778a63.995334 63.995334 0 0 0 63.995333 63.995334h21.331778v21.331778a21.331778 21.331778 0 0 0 42.663556 0v-21.331778h21.331778a63.995334 63.995334 0 0 0 63.995334-63.995334v-42.663556a63.995334 63.995334 0 0 0-63.995334-63.995333h-85.327112a21.331778 21.331778 0 0 1-21.331778-21.331778v-42.663556a21.331778 21.331778 0 0 1 21.331778-21.331778h85.327112a21.331778 21.331778 0 0 1 21.331778 21.331778v21.331778a21.331778 21.331778 0 0 0 42.663556 0v-21.331778a63.995334 63.995334 0 0 0-63.995334-63.995334h-21.331778v-21.331778a21.331778 21.331778 0 0 0-42.663556 0v21.331778h-21.331778a63.995334 63.995334 0 0 0-63.995333 63.995334v42.663556a63.995334 63.995334 0 0 0 63.995333 63.995333h85.327112a21.331778 21.331778 0 0 1 21.331778 21.331778v42.663556a21.331778 21.331778 0 0 1-21.331778 21.331778h-85.327112a21.331778 21.331778 0 0 1-21.331778-21.331778v-21.331778a21.331778 21.331778 0 0 0-21.331777-21.331778z" fill="#474C54" p-id="1238"></path></svg>